32  3  0
   0       5    12    13
   1       7    11    14
   2      15     6     9
   3       8    10    16
   4      13    10     5
   5      15    12     6
   6      14     9     7
   7      16    11     8
   8      17     7     9
   9      18     3     9
  10      19     5    10
  11      20     1    10
  12      21     8    11
  13      22     0    11
  14      23     6    12
  15      24     2    12
  16       4    10    13
  17      12     4    13
  18       4     9    14
  19      11     4    14
  20       4    12    15
  21       9     4    15
  22       4    11    16
  23      10     4    16
  24       9     3    17
  25       9     6    18
  26      10     1    19
  27      10     8    20
  28      11     0    21
  29      11     7    22
  30      12     2    23
  31      12     5    24
# Generated by triangle -prqa0.0512Djz square.2
