25  2  0  1
   0    0  0    101
   1    1  0    101
   2    1  1    102
   3    0  1    103
   4    0.5  0.5    0
   5    1  0.5    102
   6    0.5  1    103
   7    0  0.5    104
   8    0.5  0    101
   9    0.25  0.75    0
  10    0.75  0.25    0
  11    0.25  0.25    0
  12    0.75  0.75    0
  13    0.75  0.5    0
  14    0.25  0.5    0
  15    0.5  0.75    0
  16    0.5  0.25    0
  17    0  0.75    104
  18    0.25  1    103
  19    1  0.25    102
  20    0.75  0    101
  21    0.25  0    101
  22    0  0.25    104
  23    0.75  1    103
  24    1  0.75    102
# Generated by triangle -prqa0.0512Djz square.2
