963  3  0
   0      28    29    27
   1     348   365    22
   2     195   179   188
   3     135   248   252
   4      38    40    62
   5     163    12   153
   6     389   402   383
   7     305   233   303
   8     390   435     7
   9     452   449   458
  10      40    39    53
  11      96    88    89
  12     312   263   306
  13     334   341   344
  14     120   174   158
  15     156    54   107
  16     125   127   247
  17     124    31    30
  18     207   202    15
  19     277    16   270
  20     125   225    57
  21     201   204    15
  22     269   270    16
  23     127   126   287
  24     452     9   449
  25     195   194   200
  26      86   130    84
  27      97    99   143
  28     328   332    21
  29     369   370   376
  30     122    66    12
  31      66    55    65
  32      25    41    59
  33      37    59    41
  34     176   208   182
  35     180   215   181
  36      59   129    34
  37      13    36    31
  38      63    28    25
  39      32    25    28
  40      29    26   229
  41      71    29    28
  42     123   229   121
  43     219   227   123
  44      29    30    31
  45      27    29    31
  46      35    32    27
  47      28    27    32
  48      35    27    36
  49      33    35    38
  50      27    31    36
  51      32    41    25
  52      33    37    41
  53      39    40    44
  54      36    40    38
  55      75    37    33
  56      77   129    37
  57      35    36    38
  58      36    13    45
  59      39    47    49
  60      33    76    75
  61      73    74    72
  62      50    52    53
  63      32    35    41
  64      33    41    35
  65      74   124    72
  66      39    44    47
  67      51    40    36
  68      50    39    49
  69      42   302    47
  70      42    44    45
  71      44    40    51
  72      46   302   301
  73      48    87    84
  74      42    47    44
  75      49    46    48
  76     134    46   301
  77      80    60    43
  78      46    49    47
  79      50    49    48
  80     130    80    82
  81      75    76     5
  82      36    45    51
  83      44    51    45
  84      61    78    81
  85      52    76    62
  86      50    53    39
  87      62    53    52
  88      25    67    63
  89     116    68   110
  90      71    63    65
  91      29    71    26
  92      15   204   206
  93      26    71   121
  94     127   238   126
  95      45    13    74
  96     109   113    24
  97      75    58    77
  98     108    63    67
  99      38    62    33
 100      50    82    80
 101     128    78    61
 102      53    62    40
 103      67    59    64
 104      65    63    54
 105      64   111   109
 106     110    69   106
 107      65    54    66
 108      65    55    71
 109     107   106    69
 110     152   153    69
 111      59    67    25
 112      67    64   108
 113     161   120   152
 114      12    66   153
 115     107   108   106
 116      69   154   152
 117     182   181   163
 118     229    30    29
 119      71    28    63
 120     121    71    55
 121     226   227   220
 122      74    42    45
 123      72   125    73
 124     125    57   243
 125      74    13   124
 126      42    74    73
 127      33    62    76
 128      58    75     5
 129      78    76    52
 130       5    76   128
 131     129    58    34
 132      37    75    77
 133      50    81    52
 134      50    80    81
 135      81    80    43
 136     112    79   111
 137      82    50    48
 138      61    81    43
 139      81    78    52
 140      84    82    48
 141     130    60    80
 142     141   146   142
 143      86    90    19
 144      46    85    87
 145      86    84    83
 146      97    92    93
 147      87   131    84
 148      90    89    19
 149      19    60   130
 150      46    87    48
 151      87    85   131
 152      90    83    93
 153     101     1   148
 154      90    86    83
 155      89    90    96
 156      93    83   100
 157      95    96    93
 158      97    93   100
 159     100   131    94
 160      93    92    95
 161     132   133   134
 162     136    99    97
 163     142   101   103
 164     104    88    95
 165      93    96    90
 166      88    96    95
 167     133   132   136
 168     136    97    94
 169     137    98   138
 170     316   140   266
 171     140    99   138
 172     145   147   144
 173     131   100    83
 174      97   100    94
 175     105   141   103
 176      92   105    95
 177     104   149   102
 178     148   103   101
 179     141   105    92
 180     149   104    95
 181     149   105   103
 182      64   109   106
 183     110    68   154
 184     107    69   156
 185     108   107    54
 186     108    54    63
 187      64   106   108
 188      64    59   111
 189      24   115   117
 190     119   109   117
 191     235     2   168
 192     112    59    34
 193     113   111    79
 194     119   118   110
 195      59   112   111
 196     111   113   109
 197     114   116   118
 198      24   117   109
 199     151   167   168
 200     118   117   115
 201     106   119   110
 202     114   118   115
 203     110   118   116
 204     109   119   106
 205     118   119   117
 206     154   159   152
 207     211   185   202
 208      55    66   122
 209     123   121    70
 210      70   121   122
 211      55   122   121
 212     221    70   215
 213     219    56   218
 214      31   124    13
 215     226   124    30
 216     225   125    72
 217     243   238   127
 218     248   135   139
 219      42    73   246
 220     239   230   238
 221     127   287   247
 222      37   129    59
 223      78   128    76
 224      58   129    77
 225      84   130    82
 226      19   130    86
 227     131    83    84
 228     133   131    85
 229     132   134   139
 230     137   138   136
 231     131   133    94
 232     134   133    85
 233      46   134    85
 234     139   134    10
 235     251   286   248
 236     256   250   253
 237     133   136    94
 238     136   132   137
 239     139   137   132
 240     265   137   135
 241     140   138    98
 242      99   136   138
 243     248   139    10
 244     137   139   135
 245     252   254   265
 246     146    91   142
 247      92   143   141
 248     145    99   140
 249     101   142    91
 250     103   141   142
 251      97   143    92
 252     145   143    99
 253     147   140    20
 254     141   143   145
 255     146   145   144
 256     149   148   102
 257     145   146   141
 258     140   147   145
 259       1   102   148
 260     105   149    95
 261     148   149   103
 262     160   155   159
 263     114   150   234
 264     236    68   116
 265     163   157   158
 266     156   153    66
 267     157   153   152
 268     110   154    69
 269     159   154    68
 270     162   169    23
 271     159   161   152
 272     156    66    54
 273      69   153   156
 274     152   120   157
 275     157   120   158
 276     171   162    23
 277      70   122   181
 278     160   159    68
 279     159   155   161
 280     234   116   114
 281     155   167   166
 282     155   162   161
 283     161   162   172
 284     162   166   164
 285     171   170   175
 286     157   163   153
 287     163   158   182
 288     167   155   160
 289     166   162   155
 290     174   120   172
 291     151   164   166
 292     160   235   167
 293     151   166   167
 294     174   177   173
 295     160   234   235
 296     162   164   169
 297      23   170   171
 298     161   172   120
 299     162   171   172
 300     173   177   175
 301     191   184   187
 302     158   174   176
 303     177   172   171
 304     176   174   173
 305     178   165   175
 306     186   187   184
 307     183   176   173
 308     180   182   208
 309     172   177   174
 310     171   175   177
 311     186   188   183
 312     175   170   178
 313     183   188   179
 314     183   185   208
 315     215   180   211
 316     122    12   181
 317     181    12   163
 318     176   182   158
 319     180   181   182
 320     186   183   173
 321     183   179   185
 322     187   186   173
 323     184   192   188
 324     179   195   209
 325     209   185   179
 326     187   173   175
 327     186   184   188
 328     175   165   187
 329     193   191   189
 330     193   190   192
 331     195   192   196
 332     463   460   466
 333     165   189   191
 334     418   453   457
 335     165   191   187
 336     193   189     6
 337     193   192   184
 338     192   190   196
 339     191   193   184
 340     193     6   505
 341     198   194   196
 342     198   199   194
 343     192   195   188
 344     199   201   194
 345     190   502   198
 346     195   196   194
 347     469   502   504
 348     201   200   194
 349     190   198   196
 350     199   198   197
 351     300   199   197
 352     399   393   401
 353     200    15   202
 354     195   200   209
 355     199   428   204
 356      15   200   201
 357      15   206   207
 358     207   211   202
 359     425   237   449
 360     401   411   400
 361     199   204   201
 362     203   421   206
 363     228   222   223
 364      56   212   210
 365     203   206   204
 366     206   205   207
 367     210   207   205
 368     211   180   185
 369     183   208   176
 370     180   208   185
 371     200   202   209
 372     185   209   202
 373     216   210   205
 374     228   214   217
 375     212   211   207
 376     215   211    56
 377     211   212    56
 378     207   210   212
 379     412   421   420
 380      14   388   397
 381      56   210   218
 382     216   217   210
 383     221   215    56
 384     181   215    70
 385     414   216   205
 386     217   216   213
 387     222   217   213
 388     217   214   218
 389     217   218   210
 390     219   218   214
 391     219   214   220
 392     219   123   221
 393     220   214   224
 394     220   225   226
 395     219   221    56
 396      70   221   123
 397     412   419   213
 398     222     4   223
 399     230   239   245
 400     224    57   225
 401     228   224   214
 402     244   224   223
 403     226   225    72
 404     224   225   220
 405     124   226    72
 406      30   229   227
 407     220   227   219
 408      30   227   226
 409     222   228   217
 410     224   228   223
 411     121   229    26
 412     227   229   123
 413     386   388    14
 414     126   238   241
 415     242   268   126
 416     302   321   301
 417     242   126   241
 418     250   256   259
 419     235   234   150
 420      98   265   254
 421     160   236   234
 422       2   235   150
 423     167   235   168
 424      68   236   160
 425     116   234   236
 426     463   450   461
 427     453   449     9
 428     127   125   243
 429     230   275   241
 430     244   239   243
 431     239   244   245
 432     274   270   240
 433     271   257   269
 434     230   241   238
 435     242   241   240
 436     240   270   269
 437     242   267   268
 438     244   243    57
 439     238   243   239
 440     224   244    57
 441     245   244   223
 442     223     4   245
 443     422   444     4
 444      73   125   247
 445     246   231   321
 446     231   246   247
 447     247   246    73
 448     251   248    10
 449     253   252   248
 450     249   251   301
 451     287   268   249
 452     250   252   253
 453      98   266   140
 454     301   251    10
 455     251   249   286
 456     253   248   232
 457     252   250   254
 458     257   232   267
 459     257   256   253
 460     261   285   259
 461      98   254   266
 462     288   260   255
 463     250   285   254
 464     253   232   257
 465     259   256   260
 466     257   267   269
 467     255   256   257
 468     260   258   259
 469     305   323   304
 470     260   256   255
 471     259   258   261
 472     273   264   288
 473     258   260   263
 474     258   303   261
 475     140   316    20
 476      16   279   273
 477     299   291   294
 478     307   260   264
 479     263   307   306
 480     271   273   288
 481     308   306   307
 482     137   265    98
 483     252   265   135
 484     318   254   285
 485     316   318   319
 486     267   232   268
 487     269   267   242
 488     232   286   268
 489     287   249   231
 490     240   269   242
 491     271   269    16
 492     446   274   275
 493     274   272   278
 494     271    16   273
 495     257   271   255
 496     230   245   444
 497     280   283   281
 498     277   279    16
 499     264   273   289
 500     275   274   240
 501     278   277   274
 502     241   275   240
 503     230   444   446
 504     276   278   281
 505     279   276   290
 506     274   277   270
 507     277   276   279
 508     442   443   272
 509     276   277   278
 510     292   290   276
 511     289   262   308
 512     386   377   388
 513     284   520   297
 514     272   281   278
 515     284   282   283
 516     262   289   291
 517     283   292   281
 518     284   283   280
 519     282   290   292
 520     377   386   378
 521     355   358   361
 522     259   285   250
 523     285   261   318
 524     286   232   248
 525     249   268   286
 526     247   287   231
 527     126   268   287
 528     260   288   264
 529     271   288   255
 530     273   279   289
 531     291   279   290
 532     430   295   297
 533     291   289   279
 534     290   295   294
 535     291   290   294
 536     281   292   276
 537     282   292   283
 538     309   326   333
 539     326   327   320
 540     295   290   282
 541     293   298   299
 542     297   295   282
 543     293   294   295
 544     284   297   282
 545     291   299   262
 546     297    11   430
 547     298   293   325
 548     311   306   308
 549     293   299   294
 550     262   299   298
 551     468   469   474
 552     237   425   426
 553     134   301    10
 554      47   302    46
 555     246   302    42
 556     302   246   321
 557     305   304   233
 558     316   319   315
 559     258   263   305
 560     303   258   305
 561     304   323   322
 562     311   298   309
 563     312   306   313
 564     260   307   263
 565     308   307   264
 566     289   308   264
 567     311   308   262
 568     298   327   309
 569       8   323   312
 570     298   311   262
 571     314   310   313
 572     313   311   309
 573     306   311   313
 574     310     8   312
 575     314   309   296
 576     310   312   313
 577     318   316   266
 578     309   314   313
 579     303   233   319
 580      20   316   315
 581     318   266   254
 582     233   317   319
 583     303   319   261
 584     315   319   317
 585     261   319   318
 586     320   352   340
 587     329   344   343
 588     231   249   321
 589     301   321   249
 590     305   263   323
 591       8   322   323
 592     323   263   312
 593     325   293   345
 594     324   326   328
 595     320   328   326
 596     333   324   296
 597     298   325   327
 598     320   327   325
 599     309   327   326
 600      21   332   330
 601     324   328    21
 602     346   337   340
 603     330   331   334
 604     331   328   320
 605     329   330   334
 606     328   331   332
 607     330   332   331
 608     309   333   296
 609     326   324   333
 610     339   334   331
 611     337   347   341
 612     339   340   337
 613     356   335   346
 614     331   340   339
 615     349   351   336
 616     341   342   338
 617     334   339   341
 618     350   431   349
 619     340   331   320
 620     341   339   337
 621     325   345   352
 622     335   347   346
 623     341   347   342
 624     341   338   344
 625     365   348   351
 626       0   343   431
 627     344   338   431
 628     343   344   431
 629     334   344   329
 630     293   430   345
 631     357   356   346
 632     352   346   340
 633     356   357   353
 634     346   347   337
 635     354   347   335
 636     338   342   349
 637     336   351   348
 638     349   342   351
 639     342   354   351
 640     349   336   350
 641     360   351   354
 642     325   352   320
 643     346   352   345
 644     380   518   284
 645     358   335   356
 646     347   354   342
 647     358   360   335
 648     518   519   520
 649     365   371    22
 650     357   346   345
 651     358   356   353
 652     430   357   345
 653     522    11   519
 654     521   361   358
 655     358   355   360
 656     368   359   370
 657     355   364   371
 658     360   355   365
 659     335   360   354
 660     521   358   353
 661     363   364   367
 662     359   368   361
 663     384   374   368
 664     364   355   361
 665     363   367   362
 666     360   365   351
 667     365   355   371
 668     368   364   361
 669     364   363   366
 670     367   364   368
 671     375   370   359
 672     373   384   382
 673     373   383   432
 674     367   374   362
 675     372   375   517
 676     370   369   382
 677     364   366   371
 678      22   371   366
 679     377   379   380
 680     375   376   370
 681     373   382   383
 682     391   362   374
 683     368   374   367
 684     435   385   391
 685     517   375   359
 686     375   372   376
 687     379   376   372
 688     369   389   383
 689     381   380   284
 690     405   422     4
 691     369   376   378
 692     378   376   379
 693     380   379   372
 694     378   379   377
 695     518   372   517
 696     284   280   381
 697     272   445   442
 698     377   380   381
 699     383   382   369
 700     384   373   374
 701     389   369   378
 702     403   398   402
 703     368   370   384
 704     382   384   370
 705     443   442   456
 706     373   391   374
 707     394   386    14
 708     455   388   392
 709     222   405     4
 710     392   388   377
 711     388   387   397
 712     378   394   389
 713     394    14   396
 714     391   373   435
 715       7   435   432
 716     362   391   385
 717     377   381   392
 718     456   381   280
 719     416   405   410
 720     395   417   406
 721     386   394   378
 722     399   396    14
 723     447   480   483
 724     396   403   394
 725     399    14   393
 726     407   403   396
 727     397   387   410
 728      14   397   393
 729     408   398   407
 730     433   440   496
 731     409   411   401
 732     396   399   417
 733     453     9   457
 734     406   417   401
 735     409   401   393
 736     401   400   406
 737     403   402   389
 738     402   398   434
 739     394   403   389
 740     396   395   407
 741     393   410   409
 742     404   412   420
 743     213   405   222
 744     405   404   410
 745     423   406   400
 746     418   457   501
 747     408   407   395
 748     398   403   407
 749     395   406   448
 750     432   437     7
 751     393   397   410
 752     409   404   411
 753     410   387   416
 754     404   409   410
 755     404   405   419
 756     413   411   420
 757     414   213   216
 758     203   429   421
 759     199   300   426
 760     400   411   413
 761     205   206   421
 762     213   414   412
 763     415   416   442
 764     444   445   446
 765     442   416   387
 766     416   415   422
 767     396   417   395
 768     401   417   399
 769     413   424   400
 770     424   418   423
 771     213   419   405
 772     412   404   419
 773     404   420   411
 774     421   412   414
 775     420   421   413
 776     205   421   414
 777     416   422   405
 778     444   422   415
 779     424   423   400
 780     448   406   501
 781     429   413   421
 782     204   428   203
 783     418   424   425
 784     426   425   427
 785     237   426   300
 786     425   424   427
 787     429   424   413
 788     427   429   428
 789     199   426   428
 790     427   428   426
 791     428   429   203
 792     424   429   427
 793     430   293   295
 794     357   430    11
 795     349   431   338
 796       0   431   350
 797     434   383   402
 798     436   438   440
 799     434   441   439
 800     383   434   432
 801     440   438   439
 802     435   390   385
 803     373   432   435
 804     438   434   439
 805     434   438   432
 806     438   437   432
 807     437   438   436
 808     441   434   398
 809     483   467   495
 810     496   440   439
 811     433   436   440
 812     398   408   441
 813     515   441   408
 814     455   442   387
 815     281   443   280
 816     272   443   281
 817     456   442   455
 818       4   444   245
 819     445   444   415
 820     442   445   415
 821     446   445   272
 822     274   446   272
 823     446   275   230
 824     452   451   480
 825     492   395   448
 826     501   406   423
 827     448   447   492
 828     474   460   464
 829     458   451   452
 830     482   486   484
 831     488   482   485
 832     462   451   461
 833     462   473   451
 834     458   449   237
 835     480   451   473
 836     418   425   453
 837     449   453   425
 838     388   455   387
 839     497   515   516
 840     392   381   456
 841     443   456   280
 842     392   456   455
 843     480   457     9
 844     501   447   448
 845     464   460   463
 846     461   458   463
 847     464   463   458
 848     459   469   504
 849      18   477   471
 850     462   461   450
 851     451   458   461
 852     463   466   450
 853       9   452   480
 854     464   458   237
 855     466   460   477
 856     300   468   237
 857     197   468   300
 858     506   472   507
 859     450   476   462
 860     506   470   476
 861     467   473   484
 862     454   433   496
 863     469   468   197
 864     237   468   464
 865     502   469   197
 866     474   469   475
 867     476   466   506
 868     479   490   512
 869     485   484   473
 870     474   475   481
 871     478   472   506
 872     473   467   480
 873     468   474   464
 874     469   459   475
 875     459   471   475
 876     481   475   471
 877     466   476   450
 878     476   470   489
 879     477   460   481
 880      18   466   477
 881     483   480   467
 882     466    18   478
 883     487   490   488
 884     457   480   447
 885     477   481   471
 886     474   481   460
 887     482   484   485
 888     490   494   482
 889     493   495   486
 890     492   483   516
 891     485   473   462
 892     500   482   494
 893     489   462   476
 894     487   488   489
 895     499   454   498
 896     467   484   486
 897     509   470   507
 898     511   514   510
 899     489   488   485
 900     487   512   490
 901     489   485   462
 902     489   470   509
 903     499   500    17
 904     482   488   490
 905     492   408   395
 906     479   491   494
 907     447   483   492
 908     496   498   454
 909     498   497   493
 910     479   494   490
 911     494   491   500
 912     486   495   467
 913     516   495   493
 914     497   496   439
 915     496   497   498
 916     515   439   441
 917     483   495   516
 918     493   486   498
 919     499   498   486
 920     482   500   486
 921     454   499    17
 922      17   500   491
 923     486   500   499
 924     418   501   423
 925     447   501   457
 926     198   502   197
 927     505   190   193
 928     190   504   502
 929     503   504   505
 930     459   504   503
 931     503   505     6
 932     190   505   504
 933     478   506   466
 934     507   472   465
 935     509   487   489
 936     470   506   507
 937     507   465   509
 938     511   509   513
 939     511   513   508
 940     514   508     3
 941     511   487   509
 942     512   511   510
 943     511   512   487
 944     479   512   510
 945     408   492   516
 946     509   465   513
 947     508   514   511
 948     439   515   497
 949     497   516   493
 950     408   516   515
 951     521   359   361
 952     353   357   522
 953     372   518   380
 954     519   518   517
 955     522   517   353
 956     520   519    11
 957     297   520    11
 958     284   518   520
 959     353   517   521
 960     359   521   517
 961      11   522   357
 962     517   522   519
# Generated by triangle -prqa0.0016Djz square.3
