0  2  0  1
81  1
   0       1   101     101
   1       2   150     102
   2       3   508     103
   3       0   350     104
   4       5   128     102
   5       6   189     103
   6       7   437     104
   7       8   310     101
   8      17   491     104
   9      18   471     103
  10      19    89     102
  11      20   315     101
  12      21   330     101
  13      22   366     104
  14      23   169     103
  15      24   113     102
  16      34    58     102
  17      43    60     102
  18      58     5     102
  19      60    19     102
  20      61    43     102
  21      79   112     102
  22      88   104     102
  23      89    88     102
  24      91   146     101
  25     101    91     101
  26     102     1     102
  27     104   102     102
  28     112    34     102
  29     113    79     102
  30     114   115     102
  31     115    24     102
  32     128    61     102
  33     144   147     101
  34     146   144     101
  35     147    20     101
  36     150   114     102
  37     151   168     103
  38     164   151     103
  39     165   178     103
  40     168     2     103
  41     169   164     103
  42     170    23     103
  43     178   170     103
  44     189   165     103
  45     233   304     101
  46     296   324     101
  47     304   322     101
  48     310   314     101
  49     314   296     101
  50     315   317     101
  51     317   233     101
  52     322     8     101
  53     324    21     101
  54     329   343     101
  55     330   329     101
  56     336   348     104
  57     343     0     101
  58     348    22     104
  59     350   336     104
  60     362   385     104
  61     363   362     104
  62     366   363     104
  63     385   390     104
  64     390     7     104
  65     433   454     104
  66     436   433     104
  67     437   436     104
  68     454    17     104
  69     459   503     103
  70     465   472     103
  71     471   459     103
  72     472   478     103
  73     478    18     103
  74     479   510     104
  75     491   479     104
  76     503     6     103
  77     508   513     103
  78     510   514     104
  79     513   465     103
  80     514     3     104
0
# Generated by triangle -prqa0.0016Djz square.3
