523  2  0  1
   0    0  0    101
   1    1  0    101
   2    1  1    102
   3    0  1    103
   4    0.5  0.5    0
   5    1  0.5    102
   6    0.5  1    103
   7    0  0.5    104
   8    0.5  0    101
   9    0.25  0.75    0
  10    0.75  0.25    0
  11    0.25  0.25    0
  12    0.75  0.75    0
  13    0.75  0.5    0
  14    0.25  0.5    0
  15    0.5  0.75    0
  16    0.5  0.25    0
  17    0  0.75    104
  18    0.25  1    103
  19    1  0.25    102
  20    0.75  0    101
  21    0.25  0    101
  22    0  0.25    104
  23    0.75  1    103
  24    1  0.75    102
  25    0.875  0.625    0
  26    0.75  0.625    0
  27    0.8125  0.5625    0
  28    0.8125  0.625    0
  29    0.78125  0.59375    0
  30    0.71875  0.5625    0
  31    0.765625  0.546875    0
  32    0.84375  0.59375    0
  33    0.8984375  0.5078125    0
  34    1  0.625    102
  35    0.86154513888888884  0.54470486111111116    0
  36    0.81622305645743143  0.49627694354256852    0
  37    0.92849392361111105  0.57476128472222221    0
  38    0.85713919803366867  0.50340655914477983    0
  39    0.85588730543474989  0.38961944066482035    0
  40    0.84595338907889994  0.44662918013750463    0
  41    0.88582402171228491  0.58292597828771509    0
  42    0.75830240891536538  0.40198568459712486    0
  43    1  0.375    102
  44    0.80899782639857132  0.41081933375183388    0
  45    0.7755642202685441  0.45280665503236783    0
  46    0.79800125099503494  0.32404280898844651    0
  47    0.81685307246600358  0.36573887245577852    0
  48    0.87516652470637146  0.31426419947147216    0
  49    0.85393093608078907  0.34897505334996531    0
  50    0.92093993221336801  0.36611893225145398    0
  51    0.81164447288337904  0.45980965412462704    0
  52    0.90645152742401047  0.42780058859546594    0
  53    0.87136997902439062  0.42168764770748829    0
  54    0.84375  0.71875    0
  55    0.78125  0.6875    0
  56    0.609375  0.65625    0
  57    0.625  0.4765625    0
  58    1  0.5625    102
  59    0.9375  0.63795029210163179    0
  60    1  0.3125    102
  61    1  0.4375    102
  62    0.88518536592096464  0.46607786063945694    0
  63    0.84375  0.66666666666666663    0
  64    0.90299979827602639  0.69270833333333326    0
  65    0.81770833333333337  0.69270833333333337    0
  66    0.79817708333333337  0.73828125    0
  67    0.88109481918072308  0.66212319771887562    0
  68    0.87357797261038572  0.85128263053534425    0
  69    0.84636447125906245  0.78778446071559005    0
  70    0.703125  0.6875    0
  71    0.78125  0.6484375    0
  72    0.6841517857142857  0.5061383928571429    0
  73    0.71063245656178076  0.44651927553303078    0
  74    0.74161910174952506  0.46493951183912652    0
  75    0.95080470622522828  0.52452368092796797    0
  76    0.93946926954321275  0.47119083397569461    0
  77    0.96275019392654582  0.55990170402246142    0
  78    0.95392197038991755  0.42593554959833241    0
  79    1  0.6875    102
  80    0.96348155832549554  0.34375    0
  81    0.95983444577479859  0.38497452506016228    0
  82    0.92291787564696137  0.31824294965623573    0
  83    0.90685824065913934  0.22244861704888513    0
  84    0.90269704790254401  0.27238956996735342    0
  85    0.82825590434536767  0.25343545653236094    0
  86    0.94902709101389515  0.25110605714154327    0
  87    0.86220624563021331  0.27575614734989962    0
  88    1  0.125    102
  89    1  0.1875    102
  90    0.9520512255608844  0.20130207328942901    0
  91    0.875  0    101
  92    0.88289672778315731  0.11237467708239159    0
  93    0.90737631966274424  0.1646908304358371    0
  94    0.84986202984327808  0.1930561524167414    0
  95    0.94165553844231731  0.11676573875560031    0
  96    0.96519588575718929  0.15677827321011806    0
  97    0.86555108013044157  0.15237627126370293    0
  98    0.74812069654332758  0.13045212465140943    0
  99    0.81344398176692712  0.10601984669764143    0
 100    0.88577274671843687  0.19337826636030475    0
 101    0.9375  0    101
 102    1  0.0625    102
 103    0.91641342120744895  0.059207257932936755    0
 104    1  0.09375    102
 105    0.91376222700354948  0.094684103816942186    0
 106    0.89346323795117033  0.75143399952605983    0
 107    0.8569535068970574  0.75281669508893712    0
 108    0.87919915513434499  0.71898046879366551    0
 109    0.94645144191748032  0.72990168146730439    0
 110    0.89639667487323571  0.80392263722324786    0
 111    0.94872355577319101  0.68326908696134414    0
 112    1  0.65625    102
 113    1  0.71875    102
 114    1  0.875    102
 115    1  0.8125    102
 116    0.93860929112526204  0.85343844218289877    0
 117    0.95772495515308642  0.78125    0
 118    0.96118359822213162  0.82079101336162952    0
 119    0.92101057794682573  0.77622074847921385    0
 120    0.76183467716122333  0.86159206481411044    0
 121    0.7421875  0.66796875    0
 122    0.73863636363636365  0.70969460227272729    0
 123    0.6796875  0.62109375    0
 124    0.71898561507936509  0.52355530753968249    0
 125    0.66850255325360408  0.4634971256356491    0
 126    0.61155500207975677  0.35284007411511942    0
 127    0.62975939672525094  0.41345354185287125    0
 128    1  0.46875    102
 129    0.96285929678209992  0.60304575247193548    0
 130    0.95986412666127741  0.29396584885487104    0
 131    0.86549241290189294  0.2327047466704886    0
 132    0.79113079458033009  0.20609519094247267    0
 133    0.8246030160693294  0.21807288808188183    0
 134    0.78939277263718499  0.24568541065613764    0
 135    0.73050441301595037  0.19051776331299677    0
 136    0.81128000062319949  0.15806254659585869    0
 137    0.76906114906886303  0.1685946832617255    0
 138    0.78552845913019731  0.13092543482959712    0
 139    0.75654958593693278  0.21491733776094532    0
 140    0.7610199571164461  0.065398353381159041    0
 141    0.85285290261450786  0.058021103580003099    0
 142    0.88503525372559189  0.037067942532413509    0
 143    0.84943358660627311  0.095391241237658173    0
 144    0.8125  0    101
 145    0.80683232968283791  0.060413876143150802    0
 146    0.84375  0    101
 147    0.78125  0    101
 148    0.96875  0.03125    0
 149    0.95763190303644041  0.07544517517166241    0
 150    1  0.9375    102
 151    0.875  1    103
 152    0.81603867342607161  0.83836178070060396    0
 153    0.78576191874614409  0.79213117521562937    0
 154    0.84947712977354528  0.82403101369454379    0
 155    0.8265573403694676  0.92609772266726709    0
 156    0.81466315599419625  0.77043826186723874    0
 157    0.77993626723386944  0.82897597061787509    0
 158    0.70874816842428712  0.81079846606300388    0
 159    0.83682625204869165  0.8803680695124485    0
 160    0.89628593025887227  0.91773795816211157    0
 161    0.79340763360287092  0.89463592109892054    0
 162    0.77401078682124369  0.94826838037372185    0
 163    0.74466349070858839  0.79077311353418367    0
 164    0.8125  1    103
 165    0.625  1    103
 166    0.84375  0.96765612770894893    0
 167    0.88529968581458929  0.9587801529421478    0
 168    0.9375  1    103
 169    0.78125  1    103
 170    0.6875  1    103
 171    0.71875  0.95405757094403532    0
 172    0.74191966909448237  0.90858307912436587    0
 173    0.64394080848566893  0.88730177935095023    0
 174    0.70679263500720624  0.86598053728320423    0
 175    0.65828134799177584  0.9465261726574028    0
 176    0.66183842666012793  0.83676177168494603    0
 177    0.68615032520504116  0.90842960533642358    0
 178    0.65625  1    103
 179    0.56147104949452831  0.82965792555070661    0
 180    0.64551228749880918  0.7519049526133218    0
 181    0.69572303771241228  0.73884953170559486    0
 182    0.67935136649168781  0.77896680065495261    0
 183    0.61067291226877141  0.84708166951261876    0
 184    0.55738748542038752  0.92502524400605002    0
 185    0.60308138248568077  0.79033797122481686    0
 186    0.59523917750483435  0.89371637466280363    0
 187    0.60585130498368522  0.94508152971403148    0
 188    0.54946767388909468  0.87691503607934984    0
 189    0.5625  1    103
 190    0.46689994071229884  0.91521415648336846    0
 191    0.5705551042008945  0.96178903524890313    0
 192    0.51350747806233843  0.90754171174331677    0
 193    0.51975427648925321  0.95567013908168452    0
 194    0.47703271622735449  0.83136855295278056    0
 195    0.51952829844978288  0.84415739787011923    0
 196    0.48417688753647625  0.87476700578057243    0
 197    0.4061043336851225  0.86533190568287599    0
 198    0.44651465817192931  0.85867963441559092    0
 199    0.41488979564678136  0.79263490776993362    0
 200    0.51057484916937179  0.79691055930049925    0
 201    0.46319817392884782  0.78434741533986807    0
 202    0.55460521138157293  0.76233777935775648    0
 203    0.42497947677969672  0.7065081517433387    0
 204    0.45589382325065769  0.73963158739839585    0
 205    0.49503860466622635  0.67210946311869069    0
 206    0.48570652839940415  0.71180717009450312    0
 207    0.54399745935027688  0.70456437442947384    0
 208    0.64345076117151012  0.79963911360484441    0
 209    0.54638027330032057  0.79718681243691203    0
 210    0.54932141228555842  0.64337794938674753    0
 211    0.5963508474671364  0.72481233458333139    0
 212    0.57366659438423862  0.67632110866545714    0
 213    0.48402970805867745  0.58566586735121329    0
 214    0.59759129043299619  0.56470223177678225    0
 215    0.64307897174190909  0.69817063795311152    0
 216    0.50580962032780963  0.62681492753305823    0
 217    0.54194844549718868  0.58134838954699453    0
 218    0.58733445720748234  0.61255471871049838    0
 219    0.63526962297872347  0.59780379120272842    0
 220    0.64775612952152817  0.54559610776568968    0
 221    0.65302695506878372  0.65566328513756744    0
 222    0.51020992523024389  0.5462249567526658    0
 223    0.56346725284710231  0.51022172278898559    0
 224    0.60928984088151839  0.52000862325430952    0
 225    0.64635602339974452  0.50779018534336817    0
 226    0.68563954896684176  0.54402516990578598    0
 227    0.67200908570006557  0.58173661176657343    0
 228    0.56250761611061983  0.54874989771666749    0
 229    0.7159598214285714  0.6029575892857143    0
 230    0.53330226723275198  0.40938262188477453    0
 231    0.68998117945773652  0.36232633460699021    0
 232    0.64393813574774184  0.25182627805711683    0
 233    0.625  0    101
 234    0.95454265492682278  0.90625    0
 235    0.95470327701687152  0.95470327701687152    0
 236    0.92061881106799404  0.88767555426601619    0
 237    0.32035129695857151  0.81808925379114683    0
 238    0.58223701012492945  0.39468576647073988    0
 239    0.57270674600378157  0.45176888135450066    0
 240    0.53658882102035799  0.33151040952011068    0
 241    0.57037187737718931  0.35517954530741774    0
 242    0.58759184006681853  0.29465750404058405    0
 243    0.60860775166842762  0.44359232426076323    0
 244    0.5892853212151139  0.48434606730919155    0
 245    0.5364236318408302  0.47599035345101032    0
 246    0.71302750825824657  0.40130260881143098    0
 247    0.67035111156754112  0.40023510449721023    0
 248    0.69668709686280206  0.23453755427982814    0
 249    0.70684874428048372  0.29914114467344605    0
 250    0.64231858887819404  0.15777041424230559    0
 251    0.7169079837795771  0.26445793408992135    0
 252    0.68135542359274703  0.18775967480365022    0
 253    0.63714897243673096  0.20490130519727184    0
 254    0.69235949928194351  0.13303410438545843    0
 255    0.55018053805777267  0.17151308943157059    0
 256    0.59805771833477606  0.17676456364128551    0
 257    0.58575325279069845  0.23508326313366365    0
 258    0.58398592324157828  0.084184214502657617    0
 259    0.60357961661466042  0.12856566080148424    0
 260    0.55539310781698126  0.12332335485860427    0
 261    0.65045827324182492  0.081353616214801583    0
 262    0.42297047928884013  0.13337629489336528    0
 263    0.51802093012569905  0.066007673952111851    0
 264    0.49011474332321209  0.14063913133169306    0
 265    0.72132671354036337  0.15520998668865654    0
 266    0.71834155290851487  0.090741575626271234    0
 267    0.60888045847344119  0.2641850003763106    0
 268    0.64385651475384598  0.30749772340423187    0
 269    0.5469738226511317  0.26609557030045167    0
 270    0.51118644109937339  0.29394586742659462    0
 271    0.53706738410828225  0.21841410283230647    0
 272    0.44419845181259171  0.36661658470520764    0
 273    0.48608772779152259  0.19613034225380582    0
 274    0.48625647686752632  0.33817556368831236    0
 275    0.51603166439625991  0.3696482658366903    0
 276    0.41786458786451197  0.28235677974600881    0
 277    0.46525962287340683  0.28223986985888999    0
 278    0.44165797967247039  0.32116557618160957    0
 279    0.44143532930603813  0.23090356180573168    0
 280    0.35283016866825329  0.34892708703394887    0
 281    0.39374291985195192  0.32384377581942558    0
 282    0.3314862170873244  0.26820598054035916    0
 283    0.35426786266213189  0.30536454341851876    0
 284    0.28095379248951069  0.32474995613073815    0
 285    0.65502014065501346  0.12048143862020851    0
 286    0.67221973191006468  0.27970352476452398    0
 287    0.65199138874430995  0.34746977936077555    0
 288    0.51289609707586437  0.17018410809465212    0
 289    0.45342086539677068  0.16586797085881644    0
 290    0.38135530389971528  0.23450636853045159    0
 291    0.4017549524794668  0.18377346416074    0
 292    0.37895126387471073  0.27419389819327383    0
 293    0.30836304338456699  0.1802397929637985    0
 294    0.35459467986552989  0.19427815815279947    0
 295    0.32028329551233081  0.22412860644147903    0
 296    0.375  0    101
 297    0.29169153940229658  0.25485800919554447    0
 298    0.35135402216298328  0.12180539997312267    0
 299    0.3710928291061511  0.15723160173479384    0
 300    0.37275238606243682  0.82442194686360093    0
 301    0.75593846589037339  0.29873093130256179    0
 302    0.75346792231021908  0.35044192964571158    0
 303    0.6157229336641985  0.047563286594206493    0
 304    0.5625  0    101
 305    0.5726018919230762  0.04225572431895766    0
 306    0.46189200849901357  0.087553021326384997    0
 307    0.49948776212832857  0.10161082162397081    0
 308    0.4579847225841055  0.12367552516577698    0
 309    0.39626483257671247  0.07125167338093942    0
 310    0.4375  0    101
 311    0.42503337401430885  0.095687195741881031    0
 312    0.47655399831191647  0.041864863042055118    0
 313    0.43542250209341415  0.053861873172942457    0
 314    0.40625  0    101
 315    0.6875  0    101
 316    0.71735095352101208  0.040466210540678574    0
 317    0.65625  0    101
 318    0.68714352539549917  0.066208843506423573    0
 319    0.65569222659717719  0.040572254089208525    0
 320    0.25688944414214976  0.097338244149730316    0
 321    0.71789646429489462  0.33593441254089379    0
 322    0.53125  0    101
 323    0.53721428380185643  0.035524847974795486    0
 324    0.3125  0    101
 325    0.29922334595341299  0.12848387228461969    0
 326    0.31329762283341134  0.065010316889245467    0
 327    0.32210063122637456  0.10025940157774578    0
 328    0.26595705156349531  0.047783519546494069    0
 329    0.125  0    101
 330    0.1875  0    101
 331    0.20353798320200905  0.061968938102348971    0
 332    0.22984135913466494  0.033288016543351395    0
 333    0.34375  0.032126639870504146    0
 334    0.15625  0.041147551507365106    0
 335    0.12380411475470668  0.17894539752932931    0
 336    0  0.125    104
 337    0.15281520376534433  0.11305757187714505    0
 338    0.072393218256731354  0.072393218256731368    0
 339    0.16835584189676722  0.077762831464214546    0
 340    0.20642233726155138  0.11559262369241952    0
 341    0.12023107766954864  0.077641723367335297    0
 342    0.090344424973031467  0.12941069086218956    0
 343    0.0625  0    101
 344    0.10043292593231742  0.037458357691866888    0
 345    0.24693797003218376  0.16440202790508932    0
 346    0.177308770870891  0.1631731956692539    0
 347    0.12672834716054671  0.14090211356976565    0
 348    0  0.1875    104
 349    0.045911363603180079  0.112065272211349    0
 350    0  0.0625    104
 351    0.050294304910401516  0.16642157022465967    0
 352    0.2398349728009434  0.12907779439680647    0
 353    0.17144590963534856  0.2419234504255362    0
 354    0.088007778572394321  0.16705707239157927    0
 355    0.081051689759200712  0.24783863429137842    0
 356    0.15951261291111235  0.20144166207239153    0
 357    0.21363313152618824  0.20748766897925958    0
 358    0.12550190200865025  0.2334671564300122    0
 359    0.13173113952047744  0.32866065811581047    0
 360    0.092770493451415165  0.20815746395225176    0
 361    0.11659663972726259  0.28185045984760698    0
 362    0  0.375    104
 363    0  0.3125    104
 364    0.060365006998590466  0.30503729813447422    0
 365    0.041602207403038924  0.21622346073308163    0
 366    0  0.28125    104
 367    0.034507118136888795  0.34375    0
 368    0.085200860109638038  0.34961839161078656    0
 369    0.1538430678985479  0.43988551713749258    0
 370    0.12994459838775074  0.38682622691914037    0
 371    0.040999504464701936  0.26569335457438725    0
 372    0.20721736880383268  0.36008942006030659    0
 373    0.067842964160842012  0.44670917222021389    0
 374    0.05005287657007023  0.39559291756281367    0
 375    0.16349073823548982  0.35874636736241194    0
 376    0.18403594526948233  0.40233239185056791    0
 377    0.26457436153893099  0.4190469262933082    0
 378    0.21120611030694553  0.45509148919232478    0
 379    0.22686532423240569  0.39835356292826418    0
 380    0.25289906932148509  0.36080918988225491    0
 381    0.30494422608922639  0.37235809169294354    0
 382    0.10962068636510132  0.42789204111611728    0
 383    0.11499348282148911  0.49560663791350623    0
 384    0.089819018419601118  0.38957177461867343    0
 385    0  0.4375    104
 386    0.2524699427075347  0.45865619318494694    0
 387    0.36522392684842769  0.47145915570550717    0
 388    0.31003509673870439  0.45459369045237769    0
 389    0.17048820991013225  0.4928945664918557    0
 390    0  0.46875    104
 391    0.035665860009941854  0.42925394475759915    0
 392    0.30546000353733965  0.41360153891700624    0
 393    0.31794422350469842  0.52744255478533875    0
 394    0.21037141003628035  0.49502270374866336    0
 395    0.21677757139113818  0.60426518022853748    0
 396    0.22371259389413647  0.54904942667826706    0
 397    0.32959306369024749  0.48932407703647901    0
 398    0.1463562600731359  0.56822962627957962    0
 399    0.27200104726080676  0.54336008791030599    0
 400    0.33150892838717239  0.64085694287045569    0
 401    0.31237394565189902  0.58562716088548517    0
 402    0.14429424859517709  0.52603650285758163    0
 403    0.18566426803471542  0.53181132871466519    0
 404    0.39820659845679318  0.56448537530546605    0
 405    0.45090339848236427  0.53508423467496502    0
 406    0.27154688468137139  0.63070181460535213    0
 407    0.1879738615876031  0.57372683733395546    0
 408    0.15943536207890571  0.62949727342319317    0
 409    0.35158719170679065  0.56002228676133758    0
 410    0.37904555369627929  0.51891881728599798    0
 411    0.37055151664094849  0.60764369121954576    0
 412    0.43102895028787586  0.61595695545446372    0
 413    0.38495452816786679  0.6641287580768509    0
 414    0.46554691771757201  0.64116841758106713    0
 415    0.43720831163359714  0.46402462210211121    0
 416    0.40311890637216824  0.48616550070251352    0
 417    0.25889371504172498  0.58696397607646722    0
 418    0.29135040543649043  0.69587352523313628    0
 419    0.43858765323700472  0.57493607416715975    0
 420    0.39819591056476034  0.63067353445946428    0
 421    0.42828428377243788  0.66329659699747689    0
 422    0.46035326148154004  0.49641348252211548    0
 423    0.29770575656210801  0.65834767307137565    0
 424    0.34169956747627617  0.69046029056618774    0
 425    0.32294969992012101  0.75292395874764761    0
 426    0.36816734806946777  0.77452141383169315    0
 427    0.36145695214900209  0.7304368418414654    0
 428    0.40537367272783903  0.74786572443743493    0
 429    0.38708947267471727  0.70220277414186916    0
 430    0.26884500139494988  0.20647211849801686    0
 431    0.039953766244681846  0.039953766244681853    0
 432    0.057720192681672756  0.50365201509857915    0
 433    0  0.625    104
 434    0.091984653855318843  0.54973986211064729    0
 435    0.038169517617591901  0.4708052893269607    0
 436    0  0.5625    104
 437    0  0.53125    104
 438    0.044990382732246065  0.54889716506355901    0
 439    0.067337368917527202  0.61345832730370475    0
 440    0.032658728698031152  0.58931373971133538    0
 441    0.10778118467860975  0.5924764113771972    0
 442    0.39546678748510494  0.41207436065620112    0
 443    0.39266732132833976  0.36799692415020041    0
 444    0.48985662150511883  0.44479556954403954    0
 445    0.44948576580818728  0.41595083985540543    0
 446    0.47928471484727958  0.38780673174355357    0
 447    0.21788063478433892  0.68260387934060351    0
 448    0.23173381118093797  0.64323170147152153    0
 449    0.285168584716119  0.78405192532921042    0
 450    0.22195479472594984  0.88459489454568274    0
 451    0.22177447067264411  0.81433801856741295    0
 452    0.24784336899654319  0.78741424699513463    0
 453    0.28711479835469833  0.73549593902159538    0
 454    0  0.6875    104
 455    0.35069806009281163  0.42666829614326801    0
 456    0.34204398239440903  0.38753110997765233    0
 457    0.251214416636727  0.7080695206975316    0
 458    0.26980216555178643  0.84934341820465598    0
 459    0.375  1    103
 460    0.29144542323656536  0.92881786882917405    0
 461    0.23296240762756756  0.84943797257217091    0
 462    0.17181646744194604  0.84959491214034744    0
 463    0.26525304794153598  0.89326655513590336    0
 464    0.32322836239707992  0.87797758482386301    0
 465    0.125  1    103
 466    0.23275914005687345  0.94307953300829483    0
 467    0.13954483762776157  0.75084396872780867    0
 468    0.36377198385890852  0.86579335185107964    0
 469    0.38565729850804981  0.93153538350507492    0
 470    0.15514211565371153  0.92689350593622699    0
 471    0.3125  1    103
 472    0.1875  1    103
 473    0.17088420319965353  0.7952509475573476    0
 474    0.33875720844558771  0.92304022095438143    0
 475    0.35592533108064672  0.96196903691920632    0
 476    0.17968210409804639  0.89173937477357323    0
 477    0.2687376832020566  0.96325316201084055    0
 478    0.21875  1    103
 479    0  0.875    104
 480    0.19473220235397865  0.74515861919152337    0
 481    0.3160496215871052  0.96024520151342874    0
 482    0.083105853987670203  0.82393675341983263    0
 483    0.16193184567935573  0.69746040242673957    0
 484    0.12257860392246706  0.79607962436173962    0
 485    0.12579393695719693  0.84253009840469151    0
 486    0.066663421635569986  0.75874386042091158    0
 487    0.074220846687220926  0.90263568482177281    0
 488    0.090764925149583037  0.86465247122406985    0
 489    0.13019123230434909  0.88828687334878931    0
 490    0.045101025935547781  0.86735757125279889    0
 491    0  0.8125    104
 492    0.18264115880132065  0.66267227300406095    0
 493    0.097356209932674714  0.70176577913326033    0
 494    0.040608291896468605  0.82508262424516809    0
 495    0.13072040090809253  0.71575743356468502    0
 496    0.040014082013526284  0.65625    0
 497    0.086895674854995428  0.65606572540936758    0
 498    0.046956433211291199  0.7063823660763735    0
 499    0.03512159258391033  0.74072582458785574    0
 500    0.031291409410446717  0.78333177736072679    0
 501    0.26032091165222915  0.66998806667253186    0
 502    0.42294747156743501  0.90679321836175386    0
 503    0.4375  1    103
 504    0.42731678789477423  0.95385047574575865    0
 505    0.47340127064131066  0.96158069023771231    0
 506    0.18971323437664533  0.95530613660706276    0
 507    0.15052069230446186  0.96775518130948979    0
 508    0.0625  1    103
 509    0.10649210388103471  0.94208340522508649    0
 510    0  0.9375    104
 511    0.056677596269269499  0.94991144803774252    0
 512    0.031539797954832027  0.90820882464963493    0
 513    0.09375  1    103
 514    0  0.96875    104
 515    0.11899053469486114  0.63138256593118813    0
 516    0.1278443907657307  0.67262063137136396    0
 517    0.18727110596010144  0.30163020434992349    0
 518    0.23327195946347337  0.31659579755029993    0
 519    0.22040502161246175  0.27796494472830813    0
 520    0.262603747473174  0.28856474265481546    0
 521    0.15577140277555956  0.27802855844283031    0
 522    0.20795969252415977  0.24359678818767716    0
# Generated by triangle -prqa0.0016Djz square.3
